<?xml version="1.0" encoding="UTF-8"?>
<!DOCTYPE svg PUBLIC "-//W3C//DTD SVG 1.1//EN" "http://www.w3.org/Graphics/SVG/1.1/DTD/svg11.dtd">
<svg xmlns="http://www.w3.org/2000/svg" version="1.1" width="45px" height="45px" style="shape-rendering:geometricPrecision; text-rendering:geometricPrecision; image-rendering:optimizeQuality; fill-rule:evenodd; clip-rule:evenodd" xmlns:xlink="http://www.w3.org/1999/xlink">
<g><path style="opacity:1" fill="#103a7a" d="M -0.5,-0.5 C 14.5,-0.5 29.5,-0.5 44.5,-0.5C 44.5,14.5 44.5,29.5 44.5,44.5C 44.1667,44.5 43.8333,44.5 43.5,44.5C 43.8322,33.1471 43.4988,21.8138 42.5,10.5C 41.8165,10.1373 41.1499,9.80393 40.5,9.5C 40.44,8.95691 40.1067,8.62358 39.5,8.5C 38.5159,11.4281 38.1826,14.4281 38.5,17.5C 38.5,17.8333 38.5,18.1667 38.5,18.5C 38.5,22.5 38.5,26.5 38.5,30.5C 37.8333,30.8333 37.1667,31.1667 36.5,31.5C 36.1667,31.5 35.8333,31.5 35.5,31.5C 33.3431,30.9467 33.5097,29.9467 36,28.5C 36.346,26.7818 36.846,25.1151 37.5,23.5C 34.2885,21.2781 30.9551,21.2781 27.5,23.5C 29.5342,25.5989 29.8676,27.9323 28.5,30.5C 28.1667,30.3333 27.8333,30.1667 27.5,30C 26.184,24.5796 24.5173,19.4129 22.5,14.5C 23.9778,14.762 25.3112,14.4287 26.5,13.5C 24.3333,13.1667 22.1667,12.8333 20,12.5C 17.3897,12.5332 15.223,13.1999 13.5,14.5C 11.8008,14.6602 10.1341,14.4935 8.5,14C 9.38053,13.2917 10.0472,12.4584 10.5,11.5C 12.2022,8.41413 11.2022,6.41413 7.5,5.5C 2.76244,7.86479 2.4291,10.6981 6.5,14C 4.19018,14.4966 1.85684,14.6633 -0.5,14.5C -0.5,9.5 -0.5,4.5 -0.5,-0.5 Z"/></g>
<g><path style="opacity:0.38" fill="#425e89" d="M 10.5,11.5 C 10.0472,12.4584 9.38053,13.2917 8.5,14C 10.1341,14.4935 11.8008,14.6602 13.5,14.5C 11.0122,16.3878 8.01215,17.0545 4.5,16.5C 4.5,17.5 4.5,18.5 4.5,19.5C 7.51838,19.3354 10.5184,19.502 13.5,20C 9.84841,20.4986 6.18174,20.6653 2.5,20.5C 2.5,19.1667 2.5,17.8333 2.5,16.5C 1.5,16.5 0.5,16.5 -0.5,16.5C -0.5,15.8333 -0.5,15.1667 -0.5,14.5C 1.85684,14.6633 4.19018,14.4966 6.5,14C 2.4291,10.6981 2.76244,7.86479 7.5,5.5C 11.2022,6.41413 12.2022,8.41413 10.5,11.5 Z"/></g>
<g><path style="opacity:1" fill="#113b78" d="M 10.5,11.5 C 8.83333,11.5 7.16667,11.5 5.5,11.5C 5.5,10.1667 5.5,8.83333 5.5,7.5C 8.94956,6.75635 10.6162,8.08968 10.5,11.5 Z"/></g>
<g><path style="opacity:0.184" fill="#46638d" d="M 34.5,10.5 C 35.9313,11.7804 36.5979,13.4471 36.5,15.5C 34.1667,15.5 31.8333,15.5 29.5,15.5C 29.5,16.5 29.5,17.5 29.5,18.5C 32.1873,18.3359 34.854,18.5026 37.5,19C 34.5,19.6667 31.5,19.6667 28.5,19C 27.5939,17.3005 27.2606,15.4672 27.5,13.5C 29.8333,13.5 32.1667,13.5 34.5,13.5C 34.5,12.5 34.5,11.5 34.5,10.5 Z"/></g>
<g><path style="opacity:1" fill="#0c397a" d="M 40.5,9.5 C 41.1499,9.80393 41.8165,10.1373 42.5,10.5C 43.4988,21.8138 43.8322,33.1471 43.5,44.5C 28.8333,44.5 14.1667,44.5 -0.5,44.5C -0.5,35.1667 -0.5,25.8333 -0.5,16.5C 0.5,16.5 1.5,16.5 2.5,16.5C 2.5,17.8333 2.5,19.1667 2.5,20.5C 6.18174,20.6653 9.84841,20.4986 13.5,20C 10.5184,19.502 7.51838,19.3354 4.5,19.5C 4.5,18.5 4.5,17.5 4.5,16.5C 8.01215,17.0545 11.0122,16.3878 13.5,14.5C 15.5,14.5 17.5,14.5 19.5,14.5C 19.5,16.5 19.5,18.5 19.5,20.5C 17.5853,20.2155 15.9187,20.5489 14.5,21.5C 17.2869,22.4767 20.2869,22.81 23.5,22.5C 24.1524,23.4486 24.4857,24.6153 24.5,26C 24.3917,27.6811 23.7251,28.8478 22.5,29.5C 19.3711,29.7996 16.3711,30.2996 13.5,31C 17.8206,31.499 22.1539,31.6657 26.5,31.5C 30.0919,33.7107 33.9253,34.0441 38,32.5C 38.3076,33.3081 38.8076,33.9747 39.5,34.5C 40.4979,26.1932 40.8312,17.8599 40.5,9.5 Z"/></g>
<g><path style="opacity:0.69" fill="#345383" d="M 40.5,9.5 C 40.8312,17.8599 40.4979,26.1932 39.5,34.5C 38.8076,33.9747 38.3076,33.3081 38,32.5C 33.9253,34.0441 30.0919,33.7107 26.5,31.5C 25.1667,30.8333 23.8333,30.1667 22.5,29.5C 23.7251,28.8478 24.3917,27.6811 24.5,26C 24.4857,24.6153 24.1524,23.4486 23.5,22.5C 20.7131,21.5233 17.7131,21.19 14.5,21.5C 15.9187,20.5489 17.5853,20.2155 19.5,20.5C 19.5,18.5 19.5,16.5 19.5,14.5C 17.5,14.5 15.5,14.5 13.5,14.5C 15.223,13.1999 17.3897,12.5332 20,12.5C 22.1667,12.8333 24.3333,13.1667 26.5,13.5C 25.3112,14.4287 23.9778,14.762 22.5,14.5C 24.5173,19.4129 26.184,24.5796 27.5,30C 27.8333,30.1667 28.1667,30.3333 28.5,30.5C 29.8676,27.9323 29.5342,25.5989 27.5,23.5C 30.9551,21.2781 34.2885,21.2781 37.5,23.5C 36.846,25.1151 36.346,26.7818 36,28.5C 33.5097,29.9467 33.3431,30.9467 35.5,31.5C 35.8333,32.8333 36.1667,32.8333 36.5,31.5C 37.1667,31.1667 37.8333,30.8333 38.5,30.5C 38.5,26.5 38.5,22.5 38.5,18.5C 39.8333,18.1667 39.8333,17.8333 38.5,17.5C 38.1826,14.4281 38.5159,11.4281 39.5,8.5C 40.1067,8.62358 40.44,8.95691 40.5,9.5 Z"/></g>
<g><path style="opacity:1" fill="#0e3978" d="M 30.5,24.5 C 31.8333,24.5 33.1667,24.5 34.5,24.5C 34.5,25.8333 34.5,27.1667 34.5,28.5C 33.1667,28.5 31.8333,28.5 30.5,28.5C 30.5,27.1667 30.5,25.8333 30.5,24.5 Z"/></g>
<g><path style="opacity:0.106" fill="#637b9b" d="M 22.5,29.5 C 23.8333,30.1667 25.1667,30.8333 26.5,31.5C 22.1539,31.6657 17.8206,31.499 13.5,31C 16.3711,30.2996 19.3711,29.7996 22.5,29.5 Z"/></g>
</svg>
